# xmcd
#
# Track frame offsets:
#	150
#	12272
#	30028
#	43613
#	59879
#	60475
#	73728
#	84521
#	99108
#	108989
#	121774
#	136368
#	152997
#	168276
#	183124
#	183802
#
# Disc length: 2624 seconds
#
# Revision: 1
# Processed by: cddbd v1.5.2PL0 Copyright (c) Steve Scherf et al.
# Submitted via: audiograbber 1.83.01
#
DISCID=c30a3e10
DTITLE=Hillcrest - Hillcrest Pure Country 76
DYEAR=2015
DGENRE=
TTITLE0=Thats What I Like About You -Sherry Kennedy
TTITLE1=More Than One Heart -Dave Sheriff
TTITLE2=Misery, Your Company Is Here -Andy Martin
TTITLE3=Playing For Keeps -J J Woss
TTITLE4=Radio Liners -Clelia Adams
TTITLE5=Play The Song -Clelia Adams
TTITLE6=Squeegee -Dolnny Richmond
TTITLE7=Never Be Mine -Peter Clayton
TTITLE8=All The Good Ones -Don Allen
TTITLE9=You´ll Be The One -Bonita Mercer
TTITLE10=I Feel Like A Nickel (In A World Takes Dimes) -Wesley Parker
TTITLE11=I´m Ready To Sin -Matt Strasner
TTITLE12=I Diden´t Know What I Was Missing -Shelley Minson
TTITLE13=The Easy Way Out -Brian Dolph 
TTITLE14=Radio Liner -Ross Allen
TTITLE15=Hard Times (Coming Down Again) -Ross Allen
EXTD=
EXTT0=
EXTT1=
EXTT2=
EXTT3=
EXTT4=
EXTT5=
EXTT6=
EXTT7=
EXTT8=
EXTT9=
EXTT10=
EXTT11=
EXTT12=
EXTT13=
EXTT14=
EXTT15=
PLAYORDER=
